<svg width="600" height="800" xmlns="http://www.w3.org/2000/svg">
  <rect width="600" height="800" fill="#1c1917"/>
  <rect x="20" y="20" width="560" height="760" fill="#1c1917" stroke="#be185d" stroke-width="20"/>
  <!-- Lotus flowers -->
  <g fill="#fbcfe8" opacity="0.9">
    <ellipse cx="100" cy="150" rx="40" ry="20"/>
    <ellipse cx="500" cy="150" rx="40" ry="20"/>
    <ellipse cx="100" cy="650" rx="40" ry="20"/>
    <ellipse cx="500" cy="650" rx="40" ry="20"/>
    <ellipse cx="300" cy="100" rx="50" ry="25"/>
    <ellipse cx="300" cy="700" rx="50" ry="25"/>
  </g>
  <!-- Cow silhouette -->
  <ellipse cx="300" cy="400" rx="150" ry="100" fill="#fef3c7"/>
  <ellipse cx="200" cy="450" rx="30" ry="60" fill="#fef3c7"/>
  <ellipse cx="400" cy="450" rx="30" ry="60" fill="#fef3c7"/>
  <circle cx="380" cy="340" r="40" fill="#fef3c7"/>
  <!-- Calf -->
  <ellipse cx="350" cy="480" rx="60" ry="40" fill="#fef3c7" opacity="0.9"/>
  <!-- Leaves -->
  <g fill="#166534" opacity="0.8">
    <ellipse cx="150" cy="300" rx="30" ry="50"/>
    <ellipse cx="450" cy="300" rx="30" ry="50"/>
    <ellipse cx="150" cy="500" rx="30" ry="50"/>
    <ellipse cx="450" cy="500" rx="30" ry="50"/>
  </g>
  <text x="300" y="770" font-family="Georgia, serif" font-size="20" fill="#fbcfe8" text-anchor="middle">Kamadhenu's Grace</text>
</svg>
